<svg width="413" height="244" fill="none" xmlns="http://www.w3.org/2000/svg"><path d="M408.846 186.949h-36.97a12.423 12.423 0 001.289-5.528V12.425c0-3.295-1.304-6.456-3.626-8.786A12.354 12.354 0 00360.786 0H74.568c-1.626 0-3.236.32-4.74.944a12.377 12.377 0 00-4.017 2.693 12.429 12.429 0 00-2.685 4.032 12.467 12.467 0 00-.943 4.756v169.001a12.409 12.409 0 001.29 5.528H25.195a3.27 3.27 0 00-2.316.963 3.295 3.295 0 00-.959 2.324v2.652a18.417 18.417 0 005.37 12.986 18.279 18.279 0 0012.943 5.377h353.574a18.28 18.28 0 0012.949-5.384 18.415 18.415 0 005.363-12.997v-2.651a3.292 3.292 0 00-.963-2.317 3.268 3.268 0 00-2.311-.958zm-227.834 10.513l-3.154-3.61h78.682l-3.51 3.616-72.018-.006z" fill="url(#paint0_linear)"/><path d="M79.085 2.891h277.159c7.115 0 12.886 5.79 12.886 12.936v162.59c0 7.146-5.771 12.936-12.886 12.936H79.084c-7.114 0-12.885-5.79-12.885-12.936V15.827c0-7.146 5.77-12.936 12.886-12.936z" fill="#20123A" stroke="#88FFD1"/><path opacity=".5" d="M72.594 184.288V30.508h289.494v153.78H72.594z" fill="url(#paint1_linear)" stroke="#88FFD1"/><path d="M219.403 16.52c0 1.146-.924 2.071-2.061 2.071a2.066 2.066 0 01-2.061-2.07c0-1.146.925-2.07 2.061-2.07 1.137 0 2.061.924 2.061 2.07z" fill="#20123A" stroke="#D6E6FF"/><path d="M252.212 195.882h.212l.147-.151 9.837-10.125H404.5c.716 0 1.402.285 1.909.794.506.508.791 1.198.791 1.918v2.588c0 4.632-1.833 9.075-5.096 12.35a17.365 17.365 0 01-12.302 5.114H44.245a17.364 17.364 0 01-12.302-5.114 17.5 17.5 0 01-5.096-12.35v-2.588c0-.72.285-1.41.791-1.918a2.691 2.691 0 011.908-.794h143.038l8.869 10.106.149.17h70.61z" fill="#20123A" stroke="#88FFD1"/><path d="M162.555 35.45H40.015a11.207 11.207 0 00-7.941 3.29 11.291 11.291 0 00-3.3 7.962v170.405a11.291 11.291 0 003.3 7.962 11.208 11.208 0 007.94 3.291h122.541a11.209 11.209 0 007.941-3.291 11.296 11.296 0 003.299-7.962V46.703a11.296 11.296 0 00-3.299-7.962 11.208 11.208 0 00-7.941-3.291z" fill="url(#paint2_linear)"/><path d="M42.006 38.26h118.552c6.079 0 11.01 4.947 11.01 11.053v165.784c0 6.106-4.931 11.053-11.01 11.053H42.006c-6.08 0-11.01-4.947-11.01-11.053V49.313c0-6.106 4.93-11.052 11.01-11.052z" fill="#20123A" stroke="#88FFD1"/><path opacity=".5" d="M38.19 208.284V56.127h126.184v152.157H38.19z" fill="url(#paint3_linear)" stroke="#88FFD1"/><path d="M101.932 46.425a1.23 1.23 0 01-1.226 1.233 1.23 1.23 0 01-1.227-1.233c0-.682.551-1.233 1.227-1.233s1.226.55 1.226 1.233z" fill="#20123A" stroke="#D6E6FF"/><path d="M105.385 217.408c0 2.597-2.096 4.699-4.679 4.699s-4.68-2.102-4.68-4.699 2.097-4.699 4.68-4.699c2.583 0 4.679 2.102 4.679 4.699z" fill="#20123A" stroke="#88FFD1"/><path d="M69.152 93.215H6.232a6.201 6.201 0 00-4.402 1.82A6.246 6.246 0 000 99.447v138.3a6.26 6.26 0 001.83 4.412 6.218 6.218 0 004.402 1.821h62.92a6.219 6.219 0 005.754-3.845 6.261 6.261 0 00.478-2.388v-138.3a6.266 6.266 0 00-1.83-4.412 6.22 6.22 0 00-4.402-1.82z" fill="url(#paint4_linear)"/><path d="M6.9 94.87h61.578c3.219 0 5.831 2.619 5.831 5.854v136.324c0 3.235-2.612 5.854-5.83 5.854H6.9c-3.218 0-5.83-2.619-5.83-5.854V100.724c0-3.235 2.612-5.854 5.83-5.854z" fill="#20123A" stroke="#88FFD1"/><path opacity=".5" d="M6.537 229.038V108.733H68.84v120.305H6.537z" fill="url(#paint5_linear)" stroke="#88FFD1"/><path d="M30.283 101.301a.077.077 0 01-.075.078.077.077 0 01-.076-.078c0-.044.036-.077.076-.077s.075.033.075.077zM33.66 101.224h11.51c.04 0 .076.033.076.077a.077.077 0 01-.075.078H33.66a.077.077 0 01-.076-.078c0-.044.036-.077.076-.077z" fill="#20123A" stroke="#D6E6FF"/><path d="M40.93 235.315a3.536 3.536 0 01-3.529 3.544 3.536 3.536 0 01-3.528-3.544 3.536 3.536 0 013.529-3.544 3.536 3.536 0 013.528 3.544z" fill="#20123A" stroke="#88FFD1"/><defs><linearGradient id="paint0_linear" x1="217.021" y1="211.268" x2="217.021" y2="-.006" gradientUnits="userSpaceOnUse"><stop stop-color="gray" stop-opacity=".25"/><stop offset=".54" stop-color="gray" stop-opacity=".12"/><stop offset="1" stop-color="gray" stop-opacity=".1"/></linearGradient><linearGradient id="paint1_linear" x1="217.295" y1="184.61" x2="217.295" y2="30.482" gradientUnits="userSpaceOnUse"><stop stop-color="gray" stop-opacity=".25"/><stop offset=".54" stop-color="gray" stop-opacity=".12"/><stop offset="1" stop-color="gray" stop-opacity=".1"/></linearGradient><linearGradient id="paint2_linear" x1="68759.4" y1="122659" x2="68759.4" y2="58226.8" gradientUnits="userSpaceOnUse"><stop stop-color="gray" stop-opacity=".25"/><stop offset=".54" stop-color="gray" stop-opacity=".12"/><stop offset="1" stop-color="gray" stop-opacity=".1"/></linearGradient><linearGradient id="paint3_linear" x1="101.262" y1="208.608" x2="101.262" y2="56.096" gradientUnits="userSpaceOnUse"><stop stop-color="gray" stop-opacity=".25"/><stop offset=".54" stop-color="gray" stop-opacity=".12"/><stop offset="1" stop-color="gray" stop-opacity=".1"/></linearGradient><linearGradient id="paint4_linear" x1="27397.7" y1="99997.7" x2="27397.7" y2="60648" gradientUnits="userSpaceOnUse"><stop stop-color="gray" stop-opacity=".25"/><stop offset=".54" stop-color="gray" stop-opacity=".12"/><stop offset="1" stop-color="gray" stop-opacity=".1"/></linearGradient><linearGradient id="paint5_linear" x1="37.679" y1="229.399" x2="37.679" y2="108.604" gradientUnits="userSpaceOnUse"><stop stop-color="gray" stop-opacity=".25"/><stop offset=".54" stop-color="gray" stop-opacity=".12"/><stop offset="1" stop-color="gray" stop-opacity=".1"/></linearGradient></defs></svg>